<?xml version="1.0" standalone="no"?>
<!DOCTYPE svg PUBLIC "-//W3C//DTD SVG 20010904//EN"
 "http://www.w3.org/TR/2001/REC-SVG-20010904/DTD/svg10.dtd">
<svg version="1.0" xmlns="http://www.w3.org/2000/svg"
 width="512.000000pt" height="512.000000pt" viewBox="0 0 512.000000 512.000000"
 preserveAspectRatio="xMidYMid meet">
<metadata>
Created by potrace 1.16, written by Peter Selinger 2001-2019
</metadata>
<g transform="translate(0.000000,512.000000) scale(0.100000,-0.100000)"
fill="#000000" stroke="none">
<path d="M2449 5107 c-95 -35 -165 -105 -200 -196 -28 -74 -23 -195 10 -259
32 -62 92 -124 146 -151 l46 -23 -3 -56 -3 -57 -35 -3 c-69 -5 -196 -35 -280
-64 -117 -41 -208 -89 -319 -165 l-94 -65 -34 34 -34 34 16 60 c38 144 -29
290 -163 356 -57 28 -77 33 -142 33 -90 0 -165 -30 -225 -90 -113 -114 -119
-310 -12 -431 60 -68 141 -104 235 -104 40 0 88 6 106 14 33 14 35 13 70 -23
l35 -36 -35 -45 c-133 -168 -239 -424 -260 -625 l-7 -65 -57 0 -57 0 -31 50
c-90 145 -296 173 -427 58 -72 -63 -90 -106 -90 -213 0 -106 17 -147 87 -212
59 -53 130 -77 214 -70 99 8 172 52 221 135 25 42 25 42 84 42 l59 0 0 -31 c0
-61 42 -236 81 -336 41 -105 110 -228 178 -318 l39 -52 -71 -71 -72 -71 -45
15 c-58 20 -159 14 -221 -13 -66 -29 -124 -86 -156 -151 -23 -48 -28 -70 -28
-137 0 -67 5 -89 28 -137 30 -62 83 -115 149 -150 63 -34 202 -33 272 1 60 30
118 86 147 143 27 53 37 167 20 234 l-12 48 69 69 70 70 76 -55 c148 -109 367
-201 536 -228 132 -20 120 -13 120 -79 0 -56 -1 -59 -30 -71 -50 -21 -118
-105 -136 -168 -29 -100 -6 -198 65 -275 84 -91 224 -117 335 -63 100 49 156
141 156 257 0 105 -45 188 -132 242 -48 30 -48 30 -48 83 0 61 -10 54 120 74
174 25 397 119 538 225 40 30 77 55 81 55 4 0 20 -13 35 -29 l27 -28 -17 -58
c-41 -143 28 -294 168 -366 29 -15 67 -24 118 -27 136 -7 242 53 301 173 30
61 31 69 27 152 -5 101 -25 150 -86 211 -78 78 -211 111 -314 79 l-46 -15 -32
33 -31 32 54 72 c113 150 201 362 234 560 l16 101 58 0 c50 0 59 -3 64 -21 11
-33 84 -108 130 -132 32 -17 57 -22 125 -22 76 0 91 3 138 30 121 67 176 197
138 328 -45 155 -212 243 -364 193 -59 -20 -143 -90 -162 -136 -12 -28 -15
-30 -70 -30 l-58 0 -11 79 c-13 90 -42 200 -73 281 -43 113 -125 145 -188 74
-38 -43 -37 -69 3 -179 81 -222 81 -489 1 -719 -28 -82 -100 -220 -150 -288
l-36 -49 -49 46 c-35 33 -56 45 -78 45 -43 0 -80 -20 -97 -51 -26 -52 -16 -88
43 -150 l34 -36 -73 -50 c-207 -143 -411 -201 -671 -190 -140 5 -230 24 -354
73 -75 29 -207 104 -255 145 -31 25 -31 26 -15 50 32 45 17 113 -33 142 -34
21 -67 21 -100 2 -14 -8 -28 -14 -32 -15 -15 0 -101 133 -144 224 -25 52 -57
139 -71 193 -23 87 -26 116 -26 268 0 151 3 181 26 267 14 53 44 136 66 183
39 83 122 218 142 231 5 3 35 -17 65 -45 47 -44 62 -51 96 -51 56 0 98 42 98
100 0 36 -7 48 -51 95 -28 30 -48 59 -44 64 22 37 224 148 340 188 218 74 505
69 722 -12 90 -34 117 -33 160 10 32 32 35 40 30 76 -3 22 -13 49 -22 59 -32
36 -226 99 -350 115 -99 12 -95 10 -95 68 l0 52 55 29 c66 34 109 81 144 156
37 78 37 191 -1 271 -32 69 -88 127 -154 160 -59 29 -196 38 -255 16z m198
-231 c97 -105 -33 -260 -155 -186 -39 24 -66 81 -58 122 21 105 142 142 213
64z m-1211 -530 c40 -40 45 -83 15 -132 -60 -98 -211 -44 -197 71 7 55 51 95
107 95 33 0 47 -6 75 -34z m-496 -1216 c40 -40 15 -128 -37 -131 -63 -4 -97
23 -97 77 0 66 87 101 134 54z m3350 -2 c26 -28 26 -82 0 -108 -30 -30 -83
-30 -114 1 -26 24 -26 81 -1 109 25 28 87 27 115 -2z m-471 -1164 c94 -79 0
-227 -114 -180 -56 24 -81 100 -51 155 31 55 114 68 165 25z m-2457 -83 c63
-56 37 -156 -47 -179 -93 -26 -166 70 -120 158 20 38 41 49 92 50 33 0 50 -6
75 -29z m1239 -414 c44 -34 47 -89 7 -127 -47 -44 -128 -6 -128 60 0 60 76
102 121 67z"/>
<path d="M3762 4682 c-213 -77 -279 -342 -126 -512 83 -92 227 -125 347 -80
127 48 202 167 195 310 -4 89 -30 150 -89 208 -83 83 -216 113 -327 74z m166
-208 c34 -23 55 -71 48 -108 -7 -36 -49 -80 -84 -89 -35 -8 -89 11 -112 40
-34 44 -19 135 27 162 27 16 96 13 121 -5z"/>
<path d="M3339 4007 c-25 -19 -39 -52 -39 -92 0 -51 44 -95 95 -95 69 0 104
33 105 98 0 35 -6 49 -29 73 -24 23 -38 29 -73 29 -24 0 -50 -6 -59 -13z"/>
<path d="M2690 3801 c-97 -32 -187 -116 -216 -203 -22 -67 -15 -177 14 -234
47 -93 112 -144 214 -170 51 -13 71 -14 122 -4 33 7 74 19 90 27 54 28 113 92
141 154 23 53 27 71 23 138 -6 123 -69 221 -176 271 -51 25 -167 36 -212 21z
m125 -205 c38 -16 65 -60 65 -107 0 -48 -56 -99 -108 -99 -114 0 -153 160 -49
205 41 18 50 18 92 1z"/>
<path d="M1930 3377 c-87 -25 -156 -82 -202 -170 -19 -35 -23 -58 -23 -132 0
-78 4 -97 27 -141 57 -108 157 -169 278 -168 99 0 163 28 229 100 58 63 81
123 81 209 0 86 -23 146 -81 209 -79 87 -201 124 -309 93z m146 -215 c70 -56
51 -168 -31 -191 -82 -22 -156 43 -141 124 14 72 117 112 172 67z"/>
<path d="M2600 2831 c-87 -27 -165 -95 -203 -180 -33 -71 -30 -189 6 -258 105
-201 353 -238 509 -76 87 90 109 233 53 347 -54 108 -165 177 -283 175 -31 0
-68 -4 -82 -8z m163 -231 c20 -23 27 -40 27 -73 -1 -65 -44 -107 -112 -107
-90 0 -136 110 -74 179 46 51 113 51 159 1z"/>
<path d="M307 900 c-122 -43 -205 -118 -264 -238 -38 -76 -38 -76 -38 -202 0
-125 0 -126 37 -201 50 -101 120 -172 217 -218 74 -35 80 -36 191 -36 110 0
118 1 182 33 84 41 118 80 118 133 0 28 -7 47 -28 70 -39 43 -93 45 -151 4
-50 -34 -136 -45 -197 -25 -49 16 -122 84 -145 135 -23 50 -25 152 -4 203 21
49 80 110 130 133 54 25 147 25 204 -1 63 -29 106 -26 142 9 23 24 29 38 29
73 0 58 -17 79 -92 113 -54 25 -78 30 -168 32 -86 3 -116 0 -163 -17z"/>
<path d="M1210 911 c-90 -29 -183 -113 -223 -199 -20 -43 -22 -62 -22 -252 0
-204 0 -205 28 -262 34 -69 94 -131 162 -166 45 -24 61 -27 155 -27 91 0 111
3 155 25 64 31 134 101 165 165 24 48 25 57 25 265 0 208 -1 217 -25 265 -31
64 -101 134 -165 165 -40 19 -69 25 -140 27 -49 1 -101 -1 -115 -6z m171 -216
c60 -31 69 -63 69 -233 0 -119 -3 -160 -15 -183 -37 -70 -145 -93 -205 -43
-54 46 -60 69 -60 224 0 150 6 175 52 216 12 12 30 24 38 27 30 11 92 7 121
-8z"/>
<path d="M1813 902 c-13 -9 -27 -32 -33 -51 -11 -38 -10 -41 149 -501 117
-338 125 -350 210 -350 93 0 93 0 235 429 69 207 126 383 126 390 0 27 -32 79
-56 90 -14 6 -41 11 -60 11 -64 0 -81 -30 -164 -283 -41 -125 -77 -227 -80
-227 -4 0 -42 102 -85 226 -90 262 -104 284 -173 284 -29 0 -56 -7 -69 -18z"/>
<path d="M2716 889 l-26 -31 0 -398 0 -398 26 -31 c22 -26 33 -31 70 -31 57 0
91 22 104 69 6 21 10 185 10 399 0 386 -3 417 -48 441 -12 6 -41 11 -65 11
-38 0 -49 -5 -71 -31z"/>
<path d="M3116 890 l-26 -32 0 -400 0 -400 29 -29 29 -29 134 0 c152 0 208 12
282 61 176 117 238 422 132 644 -40 84 -99 145 -175 183 -53 25 -65 27 -217
30 l-161 3 -27 -31z m315 -196 c36 -18 75 -66 90 -111 7 -21 13 -76 14 -123 0
-73 -4 -93 -28 -142 -36 -74 -74 -101 -149 -106 l-58 -4 0 257 0 257 53 -7
c28 -4 64 -13 78 -21z"/>
<path d="M3969 891 c-62 -62 -20 -171 65 -171 l36 0 0 -334 0 -333 26 -27 c21
-21 36 -26 74 -26 55 0 94 30 104 81 3 18 6 188 6 379 0 191 -3 361 -6 379 -4
17 -18 42 -32 56 -23 24 -31 25 -134 25 -108 0 -110 0 -139 -29z"/>
<path d="M4725 907 c-68 -23 -101 -44 -147 -96 -112 -124 -102 -323 22 -435
48 -43 113 -75 152 -76 45 0 41 -17 -17 -77 -68 -70 -75 -81 -75 -128 0 -76
85 -119 159 -80 32 16 117 106 162 171 82 120 139 293 139 424 0 66 -4 86 -31
138 -51 102 -139 160 -256 167 -42 3 -83 0 -108 -8z m135 -214 c39 -26 49 -45
50 -85 0 -45 -38 -94 -80 -103 -34 -7 -81 14 -104 47 -58 83 52 198 134 141z"/>
</g>
</svg>
